<svg xmlns="http://www.w3.org/2000/svg" viewBox="0 0 64 64" fill="none">
  <defs>
    <linearGradient id="brandGrad" x1="0%" y1="0%" x2="100%" y2="100%">
      <stop offset="0%" stop-color="#059669"/>
      <stop offset="100%" stop-color="#2563eb"/>
    </linearGradient>
    <filter id="glow" x="-20%" y="-20%" width="140%" height="140%">
      <feDropShadow dx="0" dy="2" stdDeviation="3" flood-color="#059669" flood-opacity="0.5"/>
    </filter>
  </defs>
  <rect width="64" height="64" rx="16" fill="#090d16"/>
  <rect x="2" y="2" width="60" height="60" rx="14" stroke="url(#brandGrad)" stroke-width="2" stroke-opacity="0.4"/>
  <path d="M22 18h20m0 28v-8m-8 8h.02M22 46h.02M22 38h.02M30 38h.02M38 30h.02M30 30h.02M22 30h.02M17 52h30a4 4 0 004-4V16a4 4 0 00-4-4H17a4 4 0 00-4 4v32a4 4 0 004 4z" stroke="url(#brandGrad)" stroke-width="3" stroke-linecap="round" stroke-linejoin="round" filter="url(#glow)"/>
</svg>
